<svg width="213" height="213" viewBox="0 0 213 213" fill="none" xmlns="http://www.w3.org/2000/svg">
<g clip-path="url(#clip0)">
<path d="M192.402 50.7045H187.618V45.9208C187.618 34.6594 178.457 25.4978 167.195 25.4978H20.5988C9.33735 25.4978 0.175781 34.6597 0.175781 45.9208V141.873C0.175781 153.134 9.3377 162.296 20.5988 162.296H25.3825V167.079C25.3825 178.341 34.5444 187.502 45.8055 187.502H192.401C203.663 187.502 212.825 178.341 212.825 167.079V71.1275C212.825 59.866 203.663 50.7045 192.402 50.7045ZM197.776 167.079C197.776 170.047 195.37 172.454 192.402 172.454H45.8055C42.8372 172.454 40.431 170.047 40.431 167.079V162.295V154.771V147.247V71.1275C40.431 68.1589 42.8372 65.753 45.8055 65.753H172.57H180.094H187.618H192.402C195.37 65.753 197.776 68.1592 197.776 71.1275V167.079H197.776ZM15.2243 141.872V45.9208C15.2243 42.9526 17.6306 40.5463 20.5988 40.5463H167.195C170.163 40.5463 172.57 42.9526 172.57 45.9208V50.7045H45.8055C34.5444 50.7045 25.3825 59.8664 25.3825 71.1275V147.247H20.5992C17.6306 147.247 15.2243 144.841 15.2243 141.872Z" fill="#00AC4E"/>
<path d="M192.401 187.678H45.805C34.4469 187.678 25.2063 178.437 25.2063 167.079V162.471H20.5987C9.2406 162.471 0 153.231 0 141.873V45.9209C0 34.5629 9.2406 25.3223 20.5987 25.3223H167.195C178.553 25.3223 187.794 34.5629 187.794 45.9209V50.5289H192.402C203.76 50.5289 213 59.7695 213 71.1276V167.079C213 178.437 203.76 187.678 192.401 187.678ZM20.5987 25.6732C9.43415 25.6732 0.351274 34.7564 0.351274 45.9209V141.873C0.351274 153.037 9.43415 162.12 20.5987 162.12H25.558V167.08C25.558 178.244 34.6408 187.327 45.8054 187.327H192.401C203.566 187.327 212.649 178.244 212.649 167.08V71.1276C212.649 59.9631 203.567 50.8802 192.402 50.8802H187.442V45.9209C187.442 34.7564 178.36 25.6735 167.195 25.6735H20.5987V25.6732ZM192.402 172.629H45.8054C42.7451 172.629 40.2552 170.139 40.2552 167.079V71.1276C40.2552 68.0673 42.7451 65.5775 45.8054 65.5775H192.402C195.462 65.5775 197.952 68.0673 197.952 71.1276V167.079C197.951 170.139 195.462 172.629 192.402 172.629ZM45.8054 65.9287C42.9386 65.9287 40.6065 68.2612 40.6065 71.1276V167.079C40.6065 169.946 42.9386 172.278 45.8054 172.278H192.402C195.268 172.278 197.601 169.946 197.601 167.079V71.1276C197.601 68.2608 195.268 65.9287 192.402 65.9287H45.8054ZM25.558 147.423H20.599C17.5387 147.423 15.0486 144.933 15.0486 141.873V45.9209C15.0486 42.8606 17.5384 40.3708 20.5987 40.3708H167.195C170.256 40.3708 172.745 42.8606 172.745 45.9209V50.8802H45.8054C34.6408 50.8802 25.558 59.9631 25.558 71.1276V147.423ZM20.5987 40.7217C17.7319 40.7217 15.3998 43.0538 15.3998 45.9206V141.873C15.3998 144.739 17.7323 147.071 20.599 147.071H25.207V71.1276C25.207 59.7695 34.4476 50.5289 45.8057 50.5289H172.394V45.9209C172.394 43.0542 170.062 40.7221 167.196 40.7221H20.5987V40.7217Z" fill="#00AC4E"/>
<path d="M176.352 150.169L171.4 145.218L147.425 121.242C145.326 119.143 141.923 119.143 139.824 121.242L126.201 134.866L100.751 109.415C98.6521 107.316 95.2489 107.316 93.1504 109.415L55.3186 147.247L52.396 150.169C51.1419 151.423 50.6379 153.143 50.882 154.771C51.0467 155.869 51.5508 156.925 52.396 157.77L55.4366 160.811C56.2379 161.612 57.2295 162.106 58.2658 162.296C58.9075 162.413 59.5662 162.413 60.2076 162.296C61.2442 162.106 62.2359 161.612 63.0371 160.811L69.0762 154.771L76.6005 147.247L93.1501 130.698C95.2489 128.598 98.6521 128.598 100.751 130.698L117.3 147.247L124.824 154.771L130.863 160.811C131.665 161.612 132.656 162.106 133.693 162.296C134.334 162.413 134.993 162.413 135.634 162.296C136.671 162.106 137.662 161.612 138.464 160.811L141.505 157.77C142.349 156.925 142.854 155.869 143.018 154.771C143.262 153.143 142.759 151.424 141.505 150.169L138.582 147.247L136.842 145.507L143.624 138.724L152.148 147.247L159.672 154.771L165.711 160.811C166.468 161.568 167.396 162.05 168.37 162.261C169.647 162.537 171.004 162.345 172.167 161.683C172.577 161.45 172.963 161.16 173.312 160.811L176.352 157.771C178.323 155.8 178.443 152.68 176.713 150.568C176.6 150.431 176.48 150.298 176.352 150.169Z" fill="#00AC4E"/>
<path d="M134.664 162.559C134.329 162.559 133.991 162.529 133.662 162.468C132.55 162.265 131.54 161.735 130.74 160.935L100.626 130.822C99.6446 129.839 98.3389 129.299 96.9503 129.299C95.5617 129.299 94.2561 129.839 93.2743 130.822L63.1613 160.935C62.3615 161.735 61.3509 162.265 60.2394 162.468C59.5801 162.589 58.8941 162.589 58.2344 162.468C57.1229 162.265 56.1127 161.735 55.3125 160.935L52.2718 157.895C51.4263 157.049 50.8857 155.978 50.7083 154.798C50.448 153.062 51.0326 151.285 52.2718 150.046L93.0263 109.292C94.0745 108.244 95.4683 107.666 96.9507 107.666C98.4331 107.666 99.8269 108.244 100.875 109.292L126.201 134.618L139.701 121.119C140.749 120.071 142.142 119.493 143.625 119.493C145.108 119.493 146.501 120.071 147.55 121.119L176.476 150.046C176.604 150.174 176.73 150.312 176.849 150.457C178.664 152.671 178.503 155.868 176.476 157.895L173.436 160.935C173.086 161.286 172.688 161.589 172.255 161.835C171.423 162.309 170.475 162.559 169.513 162.559C169.117 162.559 168.72 162.517 168.333 162.433C167.291 162.208 166.342 161.69 165.587 160.935L143.625 138.973L137.091 145.508L141.63 150.046C142.869 151.285 143.453 153.062 143.193 154.798C143.016 155.978 142.475 157.049 141.63 157.895L138.589 160.935C137.789 161.735 136.779 162.266 135.667 162.469C135.337 162.529 135 162.559 134.664 162.559ZM96.9507 128.948C98.4331 128.948 99.8269 129.525 100.875 130.573L130.988 160.686C131.738 161.436 132.684 161.933 133.725 162.123C134.343 162.236 134.986 162.236 135.604 162.123C136.645 161.933 137.591 161.436 138.341 160.686L141.381 157.646C142.173 156.854 142.679 155.851 142.845 154.745C143.089 153.119 142.542 151.455 141.381 150.294L136.594 145.507L143.625 138.476L165.835 160.686C166.543 161.394 167.432 161.879 168.407 162.089C169.65 162.358 170.982 162.155 172.081 161.53C172.487 161.299 172.86 161.015 173.188 160.686L176.228 157.646C178.126 155.748 178.276 152.753 176.578 150.679C176.466 150.544 176.348 150.414 176.228 150.294L147.301 121.367C146.319 120.385 145.014 119.844 143.625 119.844C142.237 119.844 140.931 120.385 139.949 121.367L126.201 135.114L100.627 109.54C99.645 108.558 98.3393 108.017 96.9507 108.017C95.5621 108.017 94.2568 108.558 93.2746 109.54L52.5205 150.294C51.3596 151.455 50.8123 153.119 51.0564 154.745C51.2222 155.851 51.7288 156.854 52.5205 157.646L55.5612 160.686C56.3108 161.436 57.2571 161.933 58.2979 162.123C58.9162 162.236 59.559 162.236 60.1769 162.123C61.2177 161.933 62.1644 161.436 62.9137 160.686L93.0266 130.573C94.0744 129.525 95.4683 128.948 96.9507 128.948Z" fill="#00AC4E"/>
<path d="M172.569 75.1609C170.225 74.2398 167.674 73.7336 165.008 73.7336C153.574 73.7336 144.271 83.0361 144.271 94.47C144.271 105.904 153.574 115.206 165.008 115.206C167.674 115.206 170.225 114.7 172.569 113.779C175.445 112.649 178.009 110.894 180.093 108.682C183.595 104.968 185.744 99.9656 185.744 94.47C185.744 88.9747 183.595 83.9722 180.093 80.2578C178.009 78.0462 175.445 76.2909 172.569 75.1609ZM165.007 100.158C161.866 100.158 159.32 97.6111 159.32 94.47C159.32 91.3289 161.866 88.7825 165.007 88.7825C168.149 88.7825 170.695 91.3293 170.695 94.47C170.696 97.6111 168.149 100.158 165.007 100.158Z" fill="#00AC4E"/>
<path d="M165.008 115.382C153.477 115.382 144.096 106 144.096 94.4696C144.096 82.9387 153.477 73.5576 165.008 73.5576C167.636 73.5576 170.202 74.042 172.633 74.9971C175.483 76.117 178.107 77.8944 180.221 80.137C183.896 84.0354 185.92 89.1253 185.92 94.4696C185.92 99.8139 183.896 104.904 180.221 108.802C178.108 111.044 175.484 112.821 172.633 113.942C170.202 114.897 167.637 115.382 165.008 115.382ZM165.008 73.9089C153.671 73.9089 144.447 83.1323 144.447 94.4696C144.447 105.807 153.671 115.03 165.008 115.03C167.593 115.03 170.115 114.554 172.505 113.615C175.307 112.513 177.887 110.766 179.965 108.561C183.579 104.728 185.568 99.7239 185.568 94.4696C185.568 89.2153 183.579 84.2107 179.965 80.3779C177.887 78.173 175.307 76.4254 172.505 75.3242C170.115 74.3852 167.593 73.9089 165.008 73.9089ZM165.007 100.333C161.774 100.333 159.144 97.7031 159.144 94.4699C159.144 91.2368 161.774 88.6068 165.007 88.6068C168.241 88.6068 170.871 91.2372 170.871 94.4699C170.872 97.7031 168.241 100.333 165.007 100.333ZM165.007 88.9578C161.968 88.9578 159.496 91.4304 159.496 94.4696C159.496 97.5092 161.968 99.9818 165.007 99.9818C168.047 99.9818 170.52 97.5088 170.52 94.4696C170.52 91.4304 168.047 88.9578 165.007 88.9578Z" fill="#00AC4E"/>
</g>
<defs>
<clipPath id="clip0">
<rect width="213" height="213" fill="white"/>
</clipPath>
</defs>
</svg>
