<svg width="16" height="15" viewBox="0 0 16 15" fill="none" xmlns="http://www.w3.org/2000/svg">
<circle cx="8.04943" cy="7.60729" r="7.26818" fill="#00AC4E"/>
<path d="M8.36614 4.76318C6.62367 4.76318 5.20606 5.97186 5.20606 7.45757C5.20606 7.97698 5.37955 8.48004 5.7083 8.91493C5.64605 9.56727 5.4792 10.0516 5.23693 10.281C5.2049 10.3113 5.1969 10.3577 5.21712 10.396C5.23514 10.4303 5.2719 10.4513 5.3114 10.4513C5.31624 10.4513 5.3212 10.451 5.32615 10.4503C5.36881 10.4446 6.35981 10.3094 7.07651 9.91764C7.48363 10.0732 7.9172 10.1519 8.36614 10.1519C10.1086 10.1519 11.5262 8.94327 11.5262 7.45757C11.5262 5.97186 10.1086 4.76318 8.36614 4.76318Z" fill="white"/>
</svg>
