<svg width="17" height="19" viewBox="0 0 17 19" fill="none" xmlns="http://www.w3.org/2000/svg">
<path d="M7.66846 4.26743L7.36211 4.02123C7.29735 3.96919 7.24877 3.90288 7.21778 3.82894C7.1923 3.76796 7.1785 3.70187 7.17944 3.63344C7.18002 3.59109 7.18643 3.5499 7.19731 3.51023C7.22531 3.40788 7.2856 3.31682 7.37256 3.25073C7.79556 2.92928 8.04558 2.4403 8.05852 1.9092C8.07145 1.37805 7.84561 0.877467 7.43876 0.535768C7.17457 0.313855 6.78059 0.348162 6.55874 0.612346C6.33687 0.87653 6.37114 1.27048 6.63529 1.4924C6.79194 1.62397 6.81176 1.79092 6.80963 1.87871C6.80751 1.96646 6.77958 2.13223 6.61662 2.25601C6.18775 2.582 5.93758 3.07783 5.93034 3.6165C5.92306 4.15514 6.15971 4.6576 6.57961 4.99501L6.88596 5.24121C7.00135 5.33393 7.13951 5.37901 7.27685 5.37901C7.45962 5.37901 7.64074 5.29916 7.76413 5.14561C7.98017 4.87666 7.93736 4.4835 7.66846 4.26743Z" fill="#333333"/>
<path d="M10.2626 4.59063L9.90326 4.30183C9.87108 4.27596 9.84254 4.24702 9.81601 4.2166C9.70693 4.09138 9.64643 3.93127 9.6487 3.76143C9.65053 3.62737 9.69097 3.5003 9.76307 3.39248C9.80455 3.33046 9.85634 3.27475 9.91778 3.22808C10.3876 2.871 10.6653 2.32789 10.6797 1.73797C10.6941 1.14809 10.4432 0.592043 9.99137 0.212541C9.72718 -0.00937209 9.33319 0.0248987 9.11132 0.289083C8.88944 0.553231 8.92371 0.947219 9.18786 1.1691C9.34736 1.30304 9.43586 1.4993 9.43078 1.70752C9.4257 1.91574 9.32768 2.10745 9.16188 2.23344C8.68555 2.59542 8.40767 3.14617 8.39959 3.74445C8.39152 4.34273 8.65437 4.90079 9.12069 5.27557L9.48001 5.56437C9.5954 5.65709 9.7336 5.70218 9.8709 5.70218C10.0537 5.70218 10.2348 5.62232 10.3582 5.4688C10.5743 5.1999 10.5315 4.80674 10.2626 4.59063Z" fill="#333333"/>
<path d="M12.7587 4.26743L12.4523 4.02123C12.3876 3.96919 12.339 3.90292 12.308 3.82894C12.2825 3.76796 12.2687 3.70187 12.2696 3.63344C12.2702 3.59109 12.2766 3.54987 12.2875 3.51019C12.3155 3.40788 12.3758 3.31678 12.4628 3.25073C12.8858 2.92928 13.1358 2.4403 13.1487 1.9092C13.1617 1.37805 12.9358 0.877467 12.529 0.535768C12.2648 0.313855 11.8708 0.348162 11.649 0.612346C11.4271 0.87653 11.4613 1.27048 11.7255 1.4924C11.8821 1.62397 11.902 1.79092 11.8998 1.87871C11.8977 1.96646 11.8697 2.13223 11.7068 2.25601C11.278 2.582 11.0278 3.07783 11.0205 3.6165C11.0133 4.15514 11.2499 4.6576 11.6698 4.99501L11.9762 5.24121C12.0916 5.33393 12.2297 5.37901 12.3671 5.37901C12.5498 5.37901 12.731 5.29916 12.8543 5.14561C13.0704 4.87666 13.0276 4.4835 12.7587 4.26743Z" fill="#333333"/>
<path d="M16.0566 8.78884V6.54293C16.0566 6.19795 15.7769 5.91326 15.432 5.91326C15.2055 5.91326 15.0077 6.04321 14.8981 6.20981H4.10568L1.24492 0.717468C1.08564 0.411482 0.708405 0.295011 0.402454 0.454293C0.0964314 0.613539 -0.0225254 0.991923 0.136684 1.29798L2.93943 6.68502V8.78884C2.93943 11.3229 4.37513 13.5269 6.47347 14.6265L4.52302 17.5449C4.33134 17.8317 4.40846 18.2196 4.69524 18.4113C4.80187 18.4826 4.92249 18.5167 5.04173 18.5167C5.24332 18.5167 5.4412 18.4193 5.56163 18.2391L6.4295 16.9405L8.89419 17.701V17.8695C8.89419 18.2145 9.17387 18.4941 9.51881 18.4941C9.86379 18.4941 10.1434 18.2144 10.1434 17.8695V17.701L12.6081 16.9405L13.476 18.2391C13.5964 18.4193 13.7943 18.5167 13.9959 18.5167C14.1152 18.5167 14.2358 18.4826 14.3424 18.4113C14.6292 18.2196 14.7063 17.8317 14.5146 17.5449L12.5554 14.6135C14.6355 13.5095 16.0566 11.313 16.0566 8.78884ZM4.18875 7.45909H14.8074V8.00043H4.18875V7.45909ZM8.89426 16.3936L7.15391 15.8566L7.65612 15.1052C8.05454 15.2225 8.46856 15.3029 8.89426 15.3423V16.3936ZM10.1435 16.3936V15.34C10.5676 15.2987 10.9798 15.2165 11.3766 15.0977L11.8839 15.8567L10.1435 16.3936ZM9.50847 14.1217H9.50328C6.73098 14.1217 4.4481 11.998 4.20972 9.24967H14.7865C14.5488 11.998 12.2726 14.1217 9.50847 14.1217Z" fill="#333333"/>
</svg>
