<svg width="13" height="13" viewBox="0 0 13 13" fill="none" xmlns="http://www.w3.org/2000/svg">
<path fill-rule="evenodd" clip-rule="evenodd" d="M7.11484 10.1898L7.11484 7.02705L10.2776 7.02705C10.5691 7.02705 10.8047 6.7909 10.8047 6.49993C10.8047 6.20896 10.5691 5.97281 10.2776 5.97281L7.11484 5.97281L7.11484 2.81008C7.11484 2.51911 6.87922 2.28296 6.58772 2.28296C6.29622 2.28296 6.0606 2.51911 6.0606 2.81008L6.0606 5.97281L2.89787 5.97281C2.60637 5.97281 2.37075 6.20896 2.37075 6.49993C2.37075 6.7909 2.60637 7.02705 2.89787 7.02705L6.0606 7.02705L6.0606 10.1898C6.0606 10.4807 6.29622 10.7169 6.58772 10.7169C6.87922 10.7169 7.11484 10.4807 7.11484 10.1898Z" fill="black"/>
<mask id="mask0" mask-type="alpha" maskUnits="userSpaceOnUse" x="2" y="2" width="9" height="9">
<path fill-rule="evenodd" clip-rule="evenodd" d="M7.11484 10.1898L7.11484 7.02705L10.2776 7.02705C10.5691 7.02705 10.8047 6.7909 10.8047 6.49993C10.8047 6.20896 10.5691 5.97281 10.2776 5.97281L7.11484 5.97281L7.11484 2.81008C7.11484 2.51911 6.87922 2.28296 6.58772 2.28296C6.29622 2.28296 6.0606 2.51911 6.0606 2.81008L6.0606 5.97281L2.89787 5.97281C2.60637 5.97281 2.37075 6.20896 2.37075 6.49993C2.37075 6.7909 2.60637 7.02705 2.89787 7.02705L6.0606 7.02705L6.0606 10.1898C6.0606 10.4807 6.29622 10.7169 6.58772 10.7169C6.87922 10.7169 7.11484 10.4807 7.11484 10.1898Z" fill="white"/>
</mask>
<g mask="url(#mask0)">
<rect x="12.9141" y="0.174561" width="12.6509" height="12.6509" transform="rotate(90 12.9141 0.174561)" fill="black"/>
</g>
</svg>
